Coordinates
version=1
nRows=8
nColumns=40
inDegrees=yes

Units are S.I. units (second, meters, Newtons, ...)
Angles are in degrees.

endheader
time	pelvis_tilt	pelvis_list	pelvis_rotation	pelvis_tx	pelvis_ty	pelvis_tz	hip_flexion_r	hip_adduction_r	hip_rotation_r	knee_angle_r	knee_angle_r_beta	ankle_angle_r	subtalar_angle_r	mtp_angle_r	hip_flexion_l	hip_adduction_l	hip_rotation_l	knee_angle_l	knee_angle_l_beta	ankle_angle_l	subtalar_angle_l	mtp_angle_l	lumbar_extension	lumbar_bending	lumbar_rotation	arm_flex_r	arm_add_r	arm_rot_r	elbow_flex_r	pro_sup_r	wrist_flex_r	wrist_dev_r	arm_flex_l	arm_add_l	arm_rot_l	elbow_flex_l	pro_sup_l	wrist_flex_l	wrist_dev_l
     39.84314286	     -4.25010229	     -5.30229991	      7.72105546	      1.05908692	      0.92191221	      0.44784726	      2.13039914	      2.67818277	    -17.45416296	     11.64390036	     11.64390036	     15.20977456	     -0.37021109	     -6.48309521	     31.32611447	     -7.85664716	     -0.18131445	     23.35942624	     23.35942624	      5.81671239	    -10.27030951	      5.71367754	     -9.46259893	      5.33194249	      4.78749245	     34.09504561	    -15.75016378	     -2.38518394	     96.70533751	     44.27210127	      0.00000000	      0.00000000	     -9.66437594	     -7.07318541	     -5.02193176	     27.79619369	     45.88261609	      0.00000000	      0.00000000
     39.85628571	     -4.27174636	     -5.37369947	      7.56403289	      1.06075427	      0.92079665	      0.44579268	      1.68355674	      2.66033482	    -17.26531793	     11.69582788	     11.69582788	     15.55771751	     -0.36018626	     -6.55935242	     30.73951723	     -7.90074717	     -0.62560459	     23.71545250	     23.71545250	      5.55918654	    -10.58116807	      5.74766350	     -9.17005759	      5.26704687	      4.80507678	     33.63959059	    -15.36802355	     -2.18039894	     96.60674907	     44.26946210	      0.00000000	      0.00000000	     -9.36448842	     -7.20200135	     -5.02966781	     27.89419659	     45.88925418	      0.00000000	      0.00000000
     39.86942857	     -4.19879528	     -5.40064267	      7.44531953	      1.06250704	      0.91990815	      0.44357412	      1.14418400	      2.61694689	    -16.93545286	     11.80504011	     11.80504011	     16.20530953	     -0.49382357	     -5.56753647	     30.01144959	     -7.87973954	     -0.91804220	     23.88236199	     23.88236199	      4.84158115	    -11.08332665	      4.31362772	     -8.95156779	      5.16371910	      4.66064442	     33.25127254	    -14.98434504	     -1.62758380	     95.89598413	     44.32376955	      0.00000000	      0.00000000	     -9.06328877	     -7.35594557	     -5.05110438	     27.96041490	     45.89921043	      0.00000000	      0.00000000
     39.88257143	     -4.15969107	     -5.37687223	      7.37152611	      1.06407651	      0.91910102	      0.44115699	      0.70989655	      2.45456203	    -16.81151140	     12.01564041	     12.01564041	     16.52144005	     -0.55837600	     -5.59569593	     29.51208510	     -7.78722912	     -1.11301168	     24.30479459	     24.30479459	      4.82138987	    -11.29512448	      4.18812626	     -8.78184618	      5.00057208	      4.58058461	     32.56847886	    -14.67428904	     -1.36016266	     95.69122952	     44.32297061	      0.00000000	      0.00000000	     -8.58635334	     -7.56175756	     -5.07434146	     28.13893790	     45.91116530	      0.00000000	      0.00000000
     39.89571429	     -4.15371096	     -5.29748780	      7.30677796	      1.06539474	      0.91839260	      0.43863086	      0.54451070	      2.16090238	    -16.56338770	     12.66938401	     12.66938401	     16.97618565	     -0.90815209	     -5.27439845	     29.13183592	     -7.62841281	     -1.25564076	     24.74897192	     24.74897192	      4.82378342	    -11.47899201	      3.71803359	     -8.61248683	      4.74957645	      4.56770884	     31.82555824	    -14.62947523	     -0.92785193	     95.05474823	     44.34048482	      0.00000000	      0.00000000	     -7.93797284	     -7.78223484	     -5.10860707	     28.35310840	     45.92748908	      0.00000000	      0.00000000
     39.90885714	     -4.11347587	     -5.21538539	      7.29490218	      1.06657253	      0.91795541	      0.43587674	      0.40718894	      1.84509841	    -16.33324858	     13.41772146	     13.41772146	     17.33997993	     -1.34973351	     -4.86382469	     28.82049171	     -7.43813398	     -1.27449093	     25.25570472	     25.25570472	      4.97070286	    -11.67166777	      3.24895344	     -8.50931010	      4.53928747	      4.44477392	     31.04055926	    -14.50263954	     -0.45308491	     94.35166464	     44.35763122	      0.00000000	      0.00000000	     -7.21084923	     -8.01344875	     -5.12630270	     28.52016304	     45.94249976	      0.00000000	      0.00000000
     39.92200000	     -4.06887503	     -5.12011273	      7.30099963	      1.06752719	      0.91776859	      0.43303905	      0.42291068	      1.46969465	    -16.09716023	     14.43718222	     14.43718222	     17.67412362	     -1.92032864	     -4.45227626	     28.55617698	     -7.22281766	     -1.23138648	     25.76657301	     25.76657301	      5.25351653	    -11.82997145	      2.81005857	     -8.45271923	      4.29769014	      4.31333473	     30.18413972	    -14.42443310	      0.07456110	     93.46685462	     44.37870517	      0.00000000	      0.00000000	     -6.34110350	     -8.25440602	     -5.13264615	     28.68565956	     45.95797329	      0.00000000	      0.00000000
     39.93514286	     -3.88281690	     -5.10247012	      7.39845035	      1.06851081	      0.91809549	      0.43002777	      0.11957195	      1.22628693	    -16.07698893	     15.07855840	     15.07855840	     17.62278433	     -2.18876852	     -4.40593581	     28.15027980	     -7.05478395	     -1.03010651	     26.20053140	     26.20053140	      5.72432994	    -11.95586126	      2.52130995	     -8.62275623	      4.18076845	      3.97367141	     29.15582723	    -14.11969081	      0.42364385	     93.00524702	     44.38018198	      0.00000000	      0.00000000	     -5.41445274	     -8.48923867	     -5.13630474	     28.98006603	     45.97418016	      0.00000000	      0.00000000
